<?xml version="1.0" encoding="iso-8859-1"?>
<!-- Generator: Adobe Illustrator 16.0.0, SVG Export Plug-In . SVG Version: 6.00 Build 0)  -->
<!DOCTYPE svg PUBLIC "-//W3C//DTD SVG 1.1//EN" "http://www.w3.org/Graphics/SVG/1.1/DTD/svg11.dtd">
<svg version="1.1" id="Capa_1" xmlns="http://www.w3.org/2000/svg" xmlns:xlink="http://www.w3.org/1999/xlink" x="0px" y="0px"
	 width="950px" height="950px" viewBox="0 0 950 950" style="enable-background:new 0 0 950 950;" xml:space="preserve">
<g>
	<g>
		<path d="M920.24,714.704h-58.733V374.075c0-17.629-14.291-31.92-31.92-31.92H676.291v107.459
			c0,33.993-13.237,65.952-37.273,89.987c-24.036,24.036-55.995,37.274-89.987,37.274c-0.599,0-1.202-0.004-1.805-0.013
			c-12.259-0.171-24.257-2.094-35.708-5.636v143.477h-58.732c-12.463,0-18.436,15.305-9.268,23.746l220.028,202.587
			c12.979,11.951,32.954,11.951,45.934,0L929.507,738.45C938.675,730.008,932.703,714.704,920.24,714.704z"/>
		<path d="M116.857,614.585c0.485,0.007,0.973,0.01,1.456,0.01c56.479,0,102.262-45.782,102.262-102.262V182.596l348.242-46.74
			v206.299v7.129c-6.404-1.256-13.018-1.931-19.789-1.931c-10.15,0-19.951,1.486-29.207,4.24
			c-42.688,12.701-73.698,52.518-73.045,99.479c0.59,42.381,27.344,78.761,64.739,93.633c11.203,4.455,23.359,6.985,36.057,7.161
			c0.484,0.007,0.973,0.01,1.456,0.01c56.479,0,102.262-45.783,102.262-102.262V342.155V120.942V26.586
			C651.291,11.736,639.2,0,624.755,0c-1.079,0-2.171,0.065-3.271,0.2L161.459,56.422c-13.335,1.63-23.357,12.952-23.357,26.386
			v329.195c-6.404-1.256-13.017-1.931-19.789-1.931c-56.963,0-103.047,46.574-102.252,103.719
			C16.829,568.868,61.779,613.819,116.857,614.585z"/>
	</g>
</g>
<g>
</g>
<g>
</g>
<g>
</g>
<g>
</g>
<g>
</g>
<g>
</g>
<g>
</g>
<g>
</g>
<g>
</g>
<g>
</g>
<g>
</g>
<g>
</g>
<g>
</g>
<g>
</g>
<g>
</g>
</svg>
